<?xml version="1.0" standalone="no"?>
<!DOCTYPE svg PUBLIC "-//W3C//DTD SVG 20010904//EN"
 "http://www.w3.org/TR/2001/REC-SVG-20010904/DTD/svg10.dtd">
<svg version="1.0" xmlns="http://www.w3.org/2000/svg"
 width="500.000000pt" height="500.000000pt" viewBox="0 0 500.000000 500.000000"
 preserveAspectRatio="xMidYMid meet">

<g transform="translate(0.000000,500.000000) scale(0.100000,-0.100000)"
fill="#ffffff" stroke="none">
<path d="M3360 4289 c-708 -6 -711 -7 -851 -52 -325 -106 -560 -373 -639 -725
-16 -68 -18 -158 -5 -171 11 -11 1382 2 1575 14 112 8 237 29 300 52 158 56
338 220 437 397 97 173 227 460 219 483 -4 10 -43 13 -178 11 -95 -1 -481 -5
-858 -9z"/>
<path d="M3090 3173 c-124 -2 -403 -7 -620 -12 -348 -9 -404 -13 -473 -31
-201 -53 -376 -200 -503 -420 -49 -85 -139 -267 -165 -333 -21 -52 -31 -76
-75 -177 -13 -30 -32 -80 -42 -110 -18 -50 -152 -418 -225 -615 -16 -44 -35
-98 -42 -120 -8 -22 -23 -65 -35 -95 -12 -30 -30 -80 -40 -110 -18 -54 -18
-55 0 -71 28 -24 179 -49 293 -49 215 0 435 78 605 215 45 36 82 69 82 73 1 4
20 28 43 54 81 90 133 194 243 483 58 154 110 293 114 308 18 58 15 57 249 57
305 1 509 14 606 40 166 45 323 138 441 262 81 86 118 137 164 227 79 157 129
408 84 425 -15 6 -129 5 -704 -1z"/>
</g>
</svg>
